<?xml version="1.0" encoding="utf-8"?>
<!-- Generator: Adobe Illustrator 18.0.0, SVG Export Plug-In . SVG Version: 6.00 Build 0)  -->
<!DOCTYPE svg PUBLIC "-//W3C//DTD SVG 1.1//EN" "http://www.w3.org/Graphics/SVG/1.1/DTD/svg11.dtd">
<svg version="1.1" id="Layer_1" xmlns="http://www.w3.org/2000/svg" xmlns:xlink="http://www.w3.org/1999/xlink" x="0px" y="0px"
	 viewBox="0 617 169 176" enable-background="new 0 617 169 176" xml:space="preserve">
<path fill="#FFFFFF" d="M135.9,645.3c-3.7,0.2-7.4,1.5-9.7,2.4l0,0c-3.4,1.3-6.4,3.4-9,6.3c-2.7,3.1-5.2,6.8-7.2,11.1
	c-2.1,4.2-3.9,8.8-5.4,13.8c-1.5,4.9-3,9.8-4.4,14.7l-0.2,1.3c-1.7,5.7-3.2,11.4-4.7,17.1c-1.5,5.7-3.1,11.2-4.7,16.5
	c-0.6,2-1.3,4-1.9,6c-0.3,0.2-0.7,0.4-1,0.6c-0.5,0.2-0.9,0.5-1.3,0.7c-4.9,2.5-16.8,7.9-28.7,8.9c3.9-0.7,7.7-2.1,11.5-4.2
	c3.8-2.2,7.2-4.8,10.2-8c3-3.1,5.5-6.6,7.3-10.4s2.8-7.7,2.8-11.9c0-5.6-0.8-10.7-2.4-15.3c-1.6-4.6-3.4-9-5.4-13.3
	c-2.2-4.3-4.1-8.7-5.7-13c-1.6-4.3-2.4-8.9-2.4-13.7c0-5.4,1.5-10,4.6-13.8c2.6-3.3,6.5-5.2,11.6-5.6c0.6,0,9.5-0.5,19.5,2.9
	c3.3,1.3,6.5,2.8,9.6,4.5c4.4-2.2,7.6-3.1,9.7-3.5c-12.7-8.7-28-13.9-44.6-13.9c-43.4,0-78.7,35.2-78.7,78.7
	c0,10.5,2.1,20.5,5.8,29.7c3.7,4.4,12.6,9.1,14.5,10l0,0c2.1,1.1,4.3,1.9,6.8,2.6c4.6,1.3,9.4,2,14.6,2c13.7,0,22.4-2.5,34.5-7.6
	c2.1-0.9,4.1-1.8,6.2-2.8c-0.6,1.8-1.3,3.6-2,5.4c-1.8,4.7-3.8,8.9-6.1,12.7c-2.3,3.8-4.8,7-7.7,9.7c-0.3,0.3-0.6,0.6-0.9,0.8
	c-5.7,4.2-12.2,3.2-16.8,1.4c-7.1-3.3-13.5-7.8-19.1-13.1c-7-3.1-13.2-6.2-17.2-8.3c14,21.8,38.4,36.2,66.2,36.2
	c43.4,0,78.7-35.2,78.7-78.7C162.5,680.7,152.2,659.7,135.9,645.3z M44.8,744.6c-1.5,0-3.1-0.1-4.5-0.3c-0.4-0.1-0.9-0.1-1.3-0.2
	c-0.1,0-0.2,0-0.3,0c-14-2.4-19.8-12.1-22.1-18c-2.2-6.9-3.5-14.2-3.5-21.9c0-37.6,29.4-68.3,66.5-70.5c-4.1,1.4-7.7,3.3-10.9,5.8
	c-3.4,2.6-6,5.8-8,9.6c-2,3.8-2.9,8.1-2.9,12.8c0,3.7,0.8,7.6,2.3,11.9c1.5,4.2,3.1,8.5,4.9,12.8c1.7,4.3,3.3,8.7,4.7,13.2
	c1.4,4.4,2.1,8.7,2.1,12.8c0,3.9-0.5,7.8-1.6,11.7c-1.1,3.9-2.8,7.3-5,10.2c-2.3,2.9-5.1,5.3-8.5,7.2
	C53.4,743.6,49.4,744.6,44.8,744.6z M114.5,694.3l3.8-14.3c1.2-4.6,2.6-8.9,4.1-13.1c1.5-4.1,3.3-7.7,5.3-10.7
	c1.2-1.8,2.4-3.2,3.8-4.2c8.1,7.4,14.7,17.1,18.6,27.6l-6,7.6l0,0c-0.4,0.4-0.8,0.9-1.2,1.5c-7.8,9.4-16.3,18.1-25.5,26
	c-3.5,3-7.1,5.8-10.7,8.4C109.1,714.9,111.7,705.3,114.5,694.3z M83.8,774.8c-4,0-7.9-0.4-11.8-1c5.1-1.9,9.5-4.6,13.1-8
	c4.1-3.9,7.9-9,11.1-15.4c3.2-6.2,6.2-13.8,8.9-22.7c3.2-2.2,6.3-4.5,9.3-6.9c10.2-8.2,19.6-17.5,28.1-27.8
	c7.4-8.9,5.4-6.9,8.3-10.5c2.3,7,3.4,13.9,3.4,21.7C154.4,743.2,122.8,774.8,83.8,774.8z"/>
</svg>
